<svg version="1.0" xmlns="http://www.w3.org/2000/svg" width="341.3" height="341.3" viewBox="0 0 256 256"><path d="M85 43 75 53l-14-4-14-3a208 208 0 0 0-7 27 254 254 0 0 1-27 8l3 13 4 14-10 10-10 9 10 11 10 10-4 13-2 14 13 4 12 4 5 14 3 13 14-4 13-3 11 10 10 9 11-10 10-11-6-5-11-12c-4-5-5-6-8-6l-10-2c-22-7-36-26-36-48a49 49 0 0 1 45-50c4 0 4-1 8-6l12-12 7-7-12-10-11-10-9 10z"/><path d="M164 48c-27 3-52 21-64 46-9 20-9 47-1 66 11 24 33 41 58 47 9 1 28 1 37-1 8-3 23-10 30-16 11-9 18-19 27-41 5-11 6-11-6-4-15 9-22 12-34 12a47 47 0 0 1-48-51c1-10 3-17 8-25 6-8 14-14 30-20l13-6-32-7h-18zM79 96c-6 3-12 10-16 16-3 8-4 20-1 28a36 36 0 0 0 24 22l-3-10c-2-8-2-10-2-24 0-15 1-23 5-32 0-3 0-3-7 0z"/></svg>