<svg version="1.0" xmlns="http://www.w3.org/2000/svg" width="341.3" height="341.3" viewBox="0 0 256 256"><path d="m125 2-15 26c-7 15-13 25-14 25a501 501 0 0 1-55-17c-2 0-5 3-5 5a463 463 0 0 0 17 55l-26 15-26 15c-2 4 0 6 26 19l26 15a501 501 0 0 1-17 55c0 2 3 5 5 5a463 463 0 0 0 55-17c1 0 7 10 14 25l15 27 4 1c2-1 5-6 16-27l15-26a501 501 0 0 1 55 17c2 0 5-3 5-5a463 463 0 0 0-17-55l26-15c26-13 28-15 27-19l-27-15-26-15a501 501 0 0 1 17-55c0-2-3-5-5-5a463 463 0 0 0-55 17c-1 0-7-10-14-25L131 2l-3-2-3 2zm11 32 8 15h-32l8-15 8-15 8 15zM68 56l15 5-2 2a156 156 0 0 0-20 20 315 315 0 0 1-10-33l17 6zm138-5-6 17-5 15-2-2a156 156 0 0 0-20-20 765 765 0 0 1 33-10zm-62 10c24 5 45 25 51 50 10 37-13 75-50 84a70 70 0 0 1-84-50c-9-35 12-73 47-83 12-4 23-4 36-1zm-95 67v16l-15-8-15-8 15-8 14-8 1 16zm188 0-15 8-14 8v-32l14 8 15 8zM64 176a119 119 0 0 0 19 19l-33 11 11-33 3 3zm137 13 5 17-33-11 2-2a119 119 0 0 0 20-20l6 16zm-65 33-8 15-8-15-8-14h32l-8 14z"/></svg>